<svg width="35" height="35" viewBox="0 0 35 35" fill="none" xmlns="http://www.w3.org/2000/svg">
<g clip-path="url(#clip0_1154_2133)">
<path d="M16.8975 24.693L14.807 22.7084C14.6016 22.5132 14.5933 22.1888 14.7883 21.9834C14.9832 21.7781 15.3076 21.7698 15.513 21.9647L17.1605 23.529L20.1382 19.0349C20.2947 18.7988 20.613 18.7342 20.8487 18.8907C21.0848 19.0469 21.1494 19.3652 20.9929 19.6013C20.9929 19.6013 17.6799 24.6016 17.678 24.6046C17.5079 24.8609 17.1224 24.909 16.8975 24.693Z" fill="white"/>
<path d="M17.2414 32.2923C9.63539 28.7395 8.24311 21.0136 8.00278 18.7182C7.94751 18.1879 8.23884 17.6909 8.72776 17.4819C10.2231 16.8423 11.2296 15.4372 11.3545 13.8148C11.3946 13.2919 11.8189 12.8951 12.3409 12.8919L22.5449 12.8321H22.5505C23.0624 12.8321 23.4971 13.2284 23.5414 13.7371C23.683 15.3587 24.7046 16.7539 26.2072 17.3777C26.7012 17.5825 27 18.0768 26.9508 18.6074C26.7375 20.9054 25.4379 28.6522 17.8721 32.2888C17.6908 32.3759 17.423 32.3772 17.2414 32.2923ZM12.3748 13.917C12.2125 15.9117 10.9713 17.6375 9.13098 18.4247C9.05781 18.456 9.01429 18.531 9.02256 18.6114C9.24713 20.7586 10.5246 27.9897 17.5509 31.3054C24.5372 27.9077 25.7303 20.6622 25.9297 18.5126C25.9372 18.4319 25.8907 18.3564 25.8141 18.3243C23.9668 17.5577 22.708 15.8479 22.5227 13.8575L12.3748 13.917Z" fill="white"/>
<path d="M17.1389 30.1881C14.8457 28.9344 13.0128 27.121 11.7228 24.7394C10.6525 22.7634 10.1802 20.8279 9.97214 19.5524C9.9158 19.2063 10.0728 18.8658 10.3724 18.685C11.6058 17.9408 12.4982 16.7672 12.8854 15.3803C12.9872 15.0153 13.3228 14.7587 13.7009 14.7565L21.2066 14.7125C21.5863 14.7127 21.9233 14.9627 22.0295 15.3266C22.433 16.7088 23.339 17.8719 24.5813 18.6017C24.8827 18.779 25.0438 19.1174 24.9914 19.464C24.7986 20.742 24.3489 22.6825 23.3017 24.6713C22.0397 27.0679 20.2282 28.9026 17.9501 30.1833C17.7336 30.305 17.423 30.3435 17.1389 30.1881ZM11.0031 19.5008C11.2074 20.6979 11.6536 22.4587 12.6243 24.2512C13.8013 26.4243 15.4545 28.1018 17.5387 29.2388C19.6095 28.0772 21.2429 26.3803 22.3943 24.1936C23.3441 22.3895 23.7695 20.6239 23.9596 19.425C22.5807 18.5817 21.5652 17.2802 21.0827 15.7387L13.8366 15.7811C13.3725 17.328 12.3722 18.6415 11.0031 19.5008Z" fill="white"/>
<path d="M29.3819 25.4814H26.9605C26.6772 25.4814 26.4478 25.2521 26.4478 24.9688C26.4478 24.6857 26.6772 24.4561 26.9605 24.4561H29.3819C31.9144 24.4561 33.9745 22.3959 33.9745 19.8634C33.9745 17.3312 31.9144 15.2551 29.3819 15.2708C28.7963 15.2746 28.7451 14.89 28.7397 14.0737C28.7034 8.34918 24.0822 3.6914 18.3577 3.6914C14.1776 3.6914 10.2582 6.35501 8.71233 10.2248C8.63222 10.4253 8.41379 10.5407 7.98281 10.5409C4.14642 10.5434 1.02539 13.6622 1.02539 17.4984C1.02539 21.3348 4.14642 24.4561 7.98281 24.4561C8.26613 24.4561 8.49551 24.6857 8.49551 24.9688C8.49551 25.2518 8.26613 25.4814 7.98281 25.4814C3.58112 25.4814 0 21.9003 0 17.4984C0 13.1252 3.53465 9.56202 7.89736 9.51609C10.3564 3.60222 16.0316 2.66602 18.3577 2.66602C24.6478 2.66602 29.7654 7.78361 29.7654 14.0737C29.7654 14.1351 29.7646 14.1966 29.7638 14.2582C32.6843 14.455 34.9999 16.8938 34.9999 19.8634C34.9999 22.9612 32.4797 25.4814 29.3819 25.4814Z" fill="white"/>
</g>
<defs>
<clipPath id="clip0_1154_2133">
<rect width="35" height="35" fill="white"/>
</clipPath>
</defs>
</svg>
