<svg width="35" height="35" viewBox="0 0 35 35" fill="none" xmlns="http://www.w3.org/2000/svg">
<g clip-path="url(#clip0_1154_2138)">
<path d="M9.27733 35H25.7225C26.2673 34.9994 26.7896 34.7827 27.1747 34.3975C27.5599 34.0123 27.7766 33.4901 27.7772 32.9453V2.05468C27.7766 1.50993 27.5599 0.987674 27.1747 0.602481C26.7896 0.217287 26.2673 0.000615164 25.7225 0H9.27733C8.73259 0.000615164 8.21033 0.217287 7.82514 0.602481C7.43994 0.987674 7.22327 1.50993 7.22266 2.05468V32.9453C7.22327 33.4901 7.43994 34.0123 7.82514 34.3975C8.21033 34.7827 8.73259 34.9994 9.27733 35ZM23.2271 0.820312L22.6836 2.49307H12.3163L11.7728 0.820312H23.2271ZM8.04297 2.05468C8.04335 1.72742 8.17352 1.41368 8.40493 1.18227C8.63633 0.950863 8.95008 0.820692 9.27733 0.820312H10.9101L11.6279 3.02989C11.6546 3.11229 11.7068 3.1841 11.7769 3.23503C11.847 3.28596 11.9314 3.31338 12.018 3.31338H22.9815C23.0682 3.31338 23.1526 3.28596 23.2227 3.23503C23.2928 3.1841 23.3449 3.11229 23.3717 3.02989L24.0898 0.820312H25.7228C26.0501 0.820692 26.3638 0.950863 26.5952 1.18227C26.8266 1.41368 26.9568 1.72742 26.9572 2.05468V32.9453C26.9568 33.2726 26.8266 33.5864 26.5951 33.8178C26.3637 34.0492 26.0499 34.1794 25.7225 34.1797H9.27733C8.95008 34.1793 8.63633 34.0491 8.40493 33.8177C8.17352 33.5863 8.04335 33.2726 8.04297 32.9453V2.05468ZM17.4999 29.9482C17.1795 29.9482 16.8663 30.0433 16.5999 30.2213C16.3334 30.3993 16.1258 30.6523 16.0031 30.9484C15.8805 31.2444 15.8484 31.5702 15.911 31.8844C15.9735 32.1987 16.1278 32.4874 16.3543 32.714C16.5809 32.9405 16.8696 33.0948 17.1839 33.1573C17.4981 33.2199 17.8239 33.1878 18.1199 33.0652C18.416 32.9425 18.669 32.7349 18.847 32.4684C19.025 32.202 19.1201 31.8888 19.1201 31.5684C19.1196 31.1388 18.9487 30.727 18.645 30.4233C18.3413 30.1196 17.9295 29.9487 17.4999 29.9482ZM17.4999 32.3682C17.3418 32.3682 17.1871 32.3213 17.0556 32.2334C16.9241 32.1455 16.8216 32.0206 16.761 31.8744C16.7005 31.7283 16.6846 31.5675 16.7155 31.4123C16.7464 31.2572 16.8225 31.1147 16.9344 31.0028C17.0462 30.891 17.1888 30.8148 17.3439 30.7839C17.4991 30.7531 17.6599 30.7689 17.806 30.8294C17.9522 30.89 18.0771 30.9925 18.165 31.124C18.2528 31.2555 18.2997 31.4102 18.2997 31.5684C18.2995 31.7804 18.2151 31.9837 18.0652 32.1336C17.9153 32.2836 17.712 32.3679 17.4999 32.3682ZM16.1105 1.65662C16.1105 1.54784 16.1537 1.44352 16.2306 1.3666C16.3075 1.28968 16.4118 1.24646 16.5206 1.24646H19.9044C20.0132 1.24646 20.1175 1.28968 20.1944 1.3666C20.2714 1.44352 20.3146 1.54784 20.3146 1.65662C20.3146 1.7654 20.2714 1.86973 20.1944 1.94665C20.1175 2.02356 20.0132 2.06678 19.9044 2.06678H16.5206C16.4118 2.06678 16.3075 2.02356 16.2306 1.94665C16.1537 1.86973 16.1105 1.7654 16.1105 1.65662ZM14.6854 1.65662C14.6854 1.54784 14.7287 1.44352 14.8056 1.3666C14.8825 1.28968 14.9868 1.24646 15.0956 1.24646H15.0959C15.1771 1.24646 15.2564 1.27052 15.3238 1.31559C15.3913 1.36066 15.4438 1.42471 15.4749 1.49966C15.5059 1.57461 15.514 1.65708 15.4982 1.73664C15.4824 1.8162 15.4433 1.88928 15.386 1.94665C15.3286 2.00401 15.2555 2.04307 15.176 2.0589C15.0964 2.07472 15.0139 2.0666 14.939 2.03556C14.864 2.00451 14.8 1.95194 14.7549 1.88449C14.7098 1.81704 14.6858 1.73774 14.6858 1.65662H14.6854ZM22.184 12.5947C22.184 12.7034 22.1408 12.8078 22.0639 12.8847C21.9869 12.9616 21.8826 13.0048 21.7738 13.0048H17.915C17.8062 13.0048 17.7018 12.9616 17.6249 12.8847C17.548 12.8078 17.5048 12.7034 17.5048 12.5947C17.5048 12.4859 17.548 12.3816 17.6249 12.3046C17.7018 12.2277 17.8062 12.1845 17.915 12.1845H21.7738C21.8826 12.1845 21.9869 12.2277 22.0639 12.3046C22.1408 12.3816 22.184 12.4859 22.184 12.5947ZM15.1333 12.5947C15.1333 12.6758 15.1093 12.7551 15.0642 12.8225C15.0192 12.8899 14.9552 12.9425 14.8802 12.9736C14.8053 13.0046 14.7229 13.0128 14.6433 12.997C14.5638 12.9812 14.4907 12.9422 14.4333 12.8848C14.3759 12.8275 14.3368 12.7545 14.321 12.6749C14.3051 12.5954 14.3132 12.5129 14.3441 12.438C14.3751 12.363 14.4276 12.299 14.495 12.2538C14.5624 12.2087 14.6417 12.1846 14.7228 12.1845H14.7232C14.832 12.1845 14.9363 12.2277 15.0132 12.3046C15.0901 12.3816 15.1333 12.4859 15.1333 12.5947ZM13.6363 12.5947C13.6363 12.6758 13.6122 12.7551 13.5671 12.8225C13.5221 12.89 13.458 12.9426 13.3831 12.9736C13.3081 13.0046 13.2257 13.0128 13.1461 12.9969C13.0665 12.9811 12.9935 12.9421 12.9361 12.8847C12.8787 12.8273 12.8397 12.7542 12.8238 12.6747C12.808 12.5951 12.8161 12.5127 12.8472 12.4377C12.8782 12.3628 12.9308 12.2987 12.9982 12.2536C13.0657 12.2086 13.145 12.1845 13.2261 12.1845C13.28 12.1845 13.3334 12.1951 13.3832 12.2157C13.433 12.2363 13.4782 12.2665 13.5163 12.3045C13.5544 12.3426 13.5847 12.3879 13.6053 12.4376C13.6259 12.4874 13.6365 12.5408 13.6365 12.5947H13.6363ZM16.6298 12.5947C16.6298 12.6758 16.6057 12.7551 16.5607 12.8225C16.5156 12.89 16.4515 12.9426 16.3766 12.9736C16.3017 13.0046 16.2192 13.0128 16.1396 12.9969C16.0601 12.9811 15.987 12.9421 15.9296 12.8847C15.8723 12.8273 15.8332 12.7542 15.8174 12.6747C15.8015 12.5951 15.8097 12.5127 15.8407 12.4377C15.8717 12.3628 15.9243 12.2987 15.9918 12.2536C16.0592 12.2086 16.1385 12.1845 16.2196 12.1845C16.2735 12.1845 16.3269 12.1951 16.3767 12.2157C16.4265 12.2363 16.4717 12.2665 16.5098 12.3045C16.548 12.3426 16.5782 12.3879 16.5988 12.4376C16.6195 12.4874 16.6301 12.5408 16.6301 12.5947H16.6298ZM11.7446 20.9094H17.0898V22.1901C16.8953 22.2547 16.7186 22.3638 16.5738 22.5086C16.4289 22.6535 16.3198 22.8302 16.2553 23.0247H11.7509C11.6421 23.0247 11.5378 23.0679 11.4609 23.1448C11.384 23.2217 11.3408 23.326 11.3408 23.4348C11.3408 23.5436 11.384 23.6479 11.4609 23.7248C11.5378 23.8018 11.6421 23.845 11.7509 23.845H16.2554C16.3415 24.1071 16.5082 24.3354 16.7317 24.4972C16.9552 24.659 17.2241 24.7462 17.5 24.7462C17.776 24.7462 18.0449 24.659 18.2684 24.4972C18.4919 24.3354 18.6586 24.1071 18.7447 23.845H23.249C23.3577 23.845 23.4621 23.8018 23.539 23.7248C23.6159 23.6479 23.6591 23.5436 23.6591 23.4348C23.6591 23.326 23.6159 23.2217 23.539 23.1448C23.4621 23.0679 23.3577 23.0247 23.249 23.0247H18.7446C18.6801 22.8302 18.571 22.6535 18.4261 22.5086C18.2813 22.3637 18.1046 22.2547 17.9101 22.1901V20.9094H23.2553C23.364 20.9094 23.4684 20.8661 23.5453 20.7892C23.6222 20.7123 23.6654 20.608 23.6654 20.4992V16.638C23.6654 16.5292 23.6222 16.4249 23.5453 16.348C23.4684 16.271 23.364 16.2278 23.2553 16.2278H22.275V14.9354H23.2553C23.364 14.9354 23.4684 14.8921 23.5453 14.8152C23.6222 14.7383 23.6654 14.634 23.6654 14.5252V10.6641C23.6654 10.5553 23.6222 10.451 23.5453 10.374C23.4684 10.2971 23.364 10.2539 23.2553 10.2539H11.7446C11.6358 10.2539 11.5315 10.2971 11.4546 10.374C11.3777 10.451 11.3345 10.5553 11.3345 10.6641V14.5252C11.3345 14.634 11.3777 14.7383 11.4546 14.8152C11.5315 14.8921 11.6358 14.9354 11.7446 14.9354H12.7249V16.2278H11.7446C11.6358 16.2278 11.5315 16.271 11.4546 16.348C11.3777 16.4249 11.3345 16.5292 11.3345 16.638V20.4992C11.3345 20.608 11.3777 20.7123 11.4546 20.7892C11.5315 20.8661 11.6358 20.9094 11.7446 20.9094ZM17.4999 23.9258C17.4028 23.9258 17.3079 23.897 17.2272 23.843C17.1465 23.7891 17.0836 23.7124 17.0464 23.6227C17.0093 23.533 16.9995 23.4343 17.0185 23.339C17.0374 23.2438 17.0842 23.1563 17.1529 23.0877C17.2215 23.019 17.309 22.9722 17.4042 22.9533C17.4994 22.9344 17.5982 22.9441 17.6879 22.9812C17.7776 23.0184 17.8542 23.0813 17.9082 23.162C17.9622 23.2427 17.991 23.3377 17.991 23.4348C17.9908 23.5649 17.939 23.6897 17.847 23.7818C17.7549 23.8739 17.6301 23.9256 17.4999 23.9258ZM12.1548 11.0742H22.8451V14.115H12.1548V11.0742ZM13.5452 14.9354H21.4544V16.2278H13.5452V14.9354ZM12.1548 17.0481H22.8451V20.089H12.1548V17.0481ZM22.184 18.5686C22.184 18.6774 22.1408 18.7817 22.0639 18.8586C21.9869 18.9355 21.8826 18.9787 21.7738 18.9787H17.915C17.8062 18.9787 17.7018 18.9355 17.6249 18.8586C17.548 18.7817 17.5048 18.6774 17.5048 18.5686C17.5048 18.4598 17.548 18.3555 17.6249 18.2786C17.7018 18.2017 17.8062 18.1584 17.915 18.1584H21.7738C21.8826 18.1584 21.9869 18.2017 22.0639 18.2786C22.1408 18.3555 22.184 18.4598 22.184 18.5686ZM15.1333 18.5686C15.1333 18.6497 15.1093 18.729 15.0642 18.7964C15.0192 18.8639 14.9552 18.9164 14.8802 18.9475C14.8053 18.9785 14.7229 18.9867 14.6433 18.9709C14.5638 18.9551 14.4907 18.9161 14.4333 18.8588C14.3759 18.8014 14.3368 18.7284 14.321 18.6489C14.3051 18.5693 14.3132 18.4869 14.3441 18.4119C14.3751 18.337 14.4276 18.2729 14.495 18.2278C14.5624 18.1826 14.6417 18.1585 14.7228 18.1584H14.7232C14.832 18.1584 14.9363 18.2017 15.0132 18.2786C15.0901 18.3555 15.1333 18.4598 15.1333 18.5686ZM13.6363 18.5686C13.6363 18.6497 13.6122 18.729 13.5671 18.7965C13.5221 18.8639 13.458 18.9165 13.3831 18.9475C13.3081 18.9786 13.2257 18.9867 13.1461 18.9709C13.0665 18.955 12.9935 18.916 12.9361 18.8586C12.8787 18.8013 12.8397 18.7282 12.8238 18.6486C12.808 18.569 12.8161 18.4866 12.8472 18.4116C12.8782 18.3367 12.9308 18.2726 12.9982 18.2276C13.0657 18.1825 13.145 18.1584 13.2261 18.1584C13.28 18.1584 13.3334 18.169 13.3832 18.1896C13.433 18.2102 13.4782 18.2404 13.5163 18.2785C13.5544 18.3166 13.5847 18.3618 13.6053 18.4116C13.6259 18.4613 13.6365 18.5147 13.6365 18.5686H13.6363ZM16.6298 18.5686C16.6298 18.6497 16.6057 18.729 16.5607 18.7965C16.5156 18.8639 16.4515 18.9165 16.3766 18.9475C16.3017 18.9786 16.2192 18.9867 16.1396 18.9709C16.0601 18.955 15.987 18.916 15.9296 18.8586C15.8723 18.8013 15.8332 18.7282 15.8174 18.6486C15.8015 18.569 15.8097 18.4866 15.8407 18.4116C15.8717 18.3367 15.9243 18.2726 15.9918 18.2276C16.0592 18.1825 16.1385 18.1584 16.2196 18.1584C16.2735 18.1584 16.3269 18.169 16.3767 18.1896C16.4265 18.2102 16.4717 18.2404 16.5098 18.2785C16.548 18.3166 16.5782 18.3618 16.5988 18.4116C16.6195 18.4613 16.6301 18.5147 16.6301 18.5686H16.6298Z" fill="white"/>
</g>
<defs>
<clipPath id="clip0_1154_2138">
<rect width="35" height="35" fill="white"/>
</clipPath>
</defs>
</svg>
