<svg width="35" height="35" viewBox="0 0 35 35" fill="none" xmlns="http://www.w3.org/2000/svg">
<g clip-path="url(#clip0_1154_2199)">
<path d="M27.639 25.3422C27.557 25.3422 27.475 25.3367 27.3875 25.3312C26.064 25.2601 24.9758 24.675 24.3195 23.6851C23.6195 22.6297 23.5047 21.2297 24.0023 19.8351C24.2265 19.2062 24.6094 18.5937 25.1398 18.014C25.8945 17.1883 26.2281 16.1656 26.1461 14.8859C26.1351 14.7 26.2172 14.525 26.3703 14.4211C26.5179 14.3172 26.7148 14.2953 26.8844 14.3664C28 14.8422 28.7219 15.7719 29.0336 17.1336C29.1703 17.7351 29.1812 18.3969 29.0664 19.0914C29.0226 19.3648 29.0117 19.5836 29.0226 19.764C29.039 19.7039 29.0609 19.6492 29.0992 19.6C29.225 19.4195 29.4437 19.3375 29.657 19.3867C30.8656 19.6765 31.5164 20.7101 31.3086 22.0226C31.0515 23.6742 29.5312 25.3422 27.639 25.3422ZM27.1961 15.8101C27.0922 16.9422 26.6656 17.9211 25.9273 18.7305C25.4898 19.2062 25.1836 19.6984 25.0031 20.1961C24.6203 21.268 24.6914 22.3289 25.2054 23.1C25.6758 23.8055 26.4742 24.2211 27.4531 24.2758H27.464C28.8695 24.3906 30.0672 23.0945 30.264 21.8586C30.3023 21.6015 30.3078 21.3172 30.2148 21.0601C30.1711 21.1476 30.1219 21.2133 30.089 21.2515C29.8047 21.5851 29.3234 21.6726 28.8914 21.4703C28.3117 21.2023 27.7812 20.3875 28.0219 18.9164C28.1148 18.3531 28.1094 17.8336 28 17.3687C27.8414 16.6851 27.5844 16.1765 27.1961 15.8101ZM29.132 20.2562C29.1539 20.3109 29.1812 20.3492 29.1976 20.382C29.1812 20.3437 29.1594 20.3 29.132 20.2562Z" fill="white"/>
<path d="M33.5398 11.7797H0.530469C0.240625 11.7797 0 11.5445 0 11.2492V3.27577C0 2.98046 0.235156 2.7453 0.530469 2.7453H33.5398C33.8352 2.7453 34.0703 2.98046 34.0703 3.27577V11.2492C34.0703 11.5445 33.8352 11.7797 33.5398 11.7797ZM1.06094 10.7187H33.0094V3.80624H1.06094V10.7187Z" fill="white"/>
<path d="M11.6047 7.79296H4.47346C4.17815 7.79296 3.94299 7.55781 3.94299 7.26249C3.94299 6.96718 4.17815 6.73203 4.47346 6.73203H11.6047C11.9 6.73203 12.1352 6.96718 12.1352 7.26249C12.1352 7.55781 11.8946 7.79296 11.6047 7.79296Z" fill="white"/>
<path d="M25.8891 7.79296H24.243C23.9477 7.79296 23.7125 7.55781 23.7125 7.26249C23.7125 6.96718 23.9477 6.73203 24.243 6.73203H25.8891C26.1844 6.73203 26.4196 6.96718 26.4196 7.26249C26.4196 7.55781 26.1844 7.79296 25.8891 7.79296Z" fill="white"/>
<path d="M21.1422 7.79296H19.4961C19.2008 7.79296 18.9656 7.55781 18.9656 7.26249C18.9656 6.96718 19.2008 6.73203 19.4961 6.73203H21.1422C21.4375 6.73203 21.6727 6.96718 21.6727 7.26249C21.6727 7.55781 21.432 7.79296 21.1422 7.79296Z" fill="white"/>
<path d="M30.6359 7.79296H28.9898C28.6945 7.79296 28.4594 7.55781 28.4594 7.26249C28.4594 6.96718 28.6945 6.73203 28.9898 6.73203H30.6359C30.9312 6.73203 31.1664 6.96718 31.1664 7.26249C31.1664 7.55781 30.9312 7.79296 30.6359 7.79296Z" fill="white"/>
<path d="M21.8312 24.3523H0.530469C0.235156 24.3523 0 24.1117 0 23.8219V15.8484C0 15.5531 0.235156 15.318 0.530469 15.318H21.8312C22.1266 15.318 22.3617 15.5531 22.3617 15.8484C22.3617 16.1437 22.1266 16.3789 21.8312 16.3789H1.06094V23.2859H21.8312C22.1266 23.2859 22.3617 23.5211 22.3617 23.8164C22.3617 24.1117 22.1211 24.3523 21.8312 24.3523Z" fill="white"/>
<path d="M11.6047 20.3656H4.47346C4.17815 20.3656 3.94299 20.1305 3.94299 19.8352C3.94299 19.5398 4.17815 19.3047 4.47346 19.3047H11.6047C11.9 19.3047 12.1352 19.5398 12.1352 19.8352C12.1352 20.125 11.8946 20.3656 11.6047 20.3656Z" fill="white"/>
<path d="M16.5047 16.3789C16.2094 16.3789 15.9742 16.1437 15.9742 15.8484V11.2492C15.9742 10.9539 16.2094 10.7188 16.5047 10.7188C16.8 10.7188 17.0352 10.9539 17.0352 11.2492V15.8484C17.0352 16.1383 16.7946 16.3789 16.5047 16.3789Z" fill="white"/>
<path d="M27.5187 27.3109C23.3953 27.3109 20.0375 23.9586 20.0375 19.8297C20.0375 15.7062 23.3898 12.3484 27.5187 12.3484C31.6476 12.3484 35 15.7117 35 19.8351C35 23.9586 31.6476 27.3109 27.5187 27.3109ZM27.5187 13.4148C23.9804 13.4148 21.0984 16.2914 21.0984 19.8351C21.0984 23.3734 23.975 26.2554 27.5187 26.2554C31.057 26.2554 33.939 23.3789 33.939 19.8351C33.939 16.2969 31.0625 13.4148 27.5187 13.4148Z" fill="white"/>
<path d="M16.5047 29.0445C16.2094 29.0445 15.9742 28.8094 15.9742 28.514V23.8164C15.9742 23.5211 16.2094 23.2859 16.5047 23.2859C16.8 23.2859 17.0352 23.5211 17.0352 23.8164V28.514C17.0352 28.8094 16.8 29.0445 16.5047 29.0445Z" fill="white"/>
<path d="M19.8024 32.2547H13.207C12.9117 32.2547 12.6766 32.0195 12.6766 31.7242V28.5195C12.6766 28.2242 12.9117 27.989 13.207 27.989H19.8024C20.0977 27.989 20.3328 28.2242 20.3328 28.5195V31.7242C20.3328 32.014 20.0922 32.2547 19.8024 32.2547ZM13.7375 31.1937H19.2719V29.05H13.7375V31.1937Z" fill="white"/>
<path d="M24.8828 30.6469H19.8023C19.507 30.6469 19.2719 30.4117 19.2719 30.1164C19.2719 29.8211 19.507 29.5859 19.8023 29.5859H24.8828C25.1781 29.5859 25.4133 29.8211 25.4133 30.1164C25.4133 30.4117 25.1781 30.6469 24.8828 30.6469Z" fill="white"/>
<path d="M13.2125 30.6469H8.13203C7.83672 30.6469 7.60156 30.4117 7.60156 30.1164C7.60156 29.8211 7.83672 29.5859 8.13203 29.5859H13.2125C13.5078 29.5859 13.743 29.8211 13.743 30.1164C13.743 30.4117 13.5023 30.6469 13.2125 30.6469Z" fill="white"/>
</g>
<defs>
<clipPath id="clip0_1154_2199">
<rect width="35" height="35" fill="white"/>
</clipPath>
</defs>
</svg>
