<svg width="35" height="35" viewBox="0 0 35 35" fill="none" xmlns="http://www.w3.org/2000/svg">
<path d="M31.3173 13.4969C31.0231 13.4985 30.735 13.4124 30.4899 13.2496C30.2448 13.0867 30.0538 12.8544 29.9414 12.5825C29.8867 12.448 29.832 12.3145 29.7773 12.1822C29.6642 11.9102 29.6346 11.6106 29.6926 11.3218C29.7506 11.033 29.8934 10.768 30.1027 10.5607C30.3434 10.3201 30.5342 10.0345 30.6645 9.72019C30.7947 9.40584 30.8617 9.06892 30.8617 8.72867C30.8617 8.38842 30.7947 8.0515 30.6645 7.73716C30.5342 7.42281 30.3434 7.1372 30.1027 6.89664L28.1012 4.89891C27.615 4.41361 26.9561 4.14105 26.2691 4.14105C25.5822 4.14105 24.9233 4.41361 24.4371 4.89891C24.2302 5.1088 23.9654 5.25215 23.6765 5.3106C23.3876 5.36906 23.0879 5.33996 22.8156 5.22703C22.6829 5.16943 22.5495 5.11474 22.4153 5.06297C22.1431 4.94991 21.9108 4.75812 21.7483 4.5122C21.5858 4.26627 21.5004 3.97742 21.5031 3.68266C21.5023 2.9963 21.2292 2.33831 20.7439 1.85298C20.2586 1.36766 19.6006 1.09462 18.9142 1.09375H16.0858C15.3994 1.09462 14.7414 1.36766 14.2561 1.85298C13.7708 2.33831 13.4977 2.9963 13.4969 3.68266C13.4985 3.97685 13.4125 4.26485 13.2497 4.50992C13.0869 4.75499 12.8548 4.94601 12.583 5.05859C12.4485 5.11328 12.3145 5.16797 12.1822 5.22266C11.91 5.33566 11.6102 5.3648 11.3213 5.30634C11.0324 5.24788 10.7676 5.10448 10.5607 4.89453C10.0746 4.40897 9.41571 4.13622 8.72867 4.13622C8.04163 4.13622 7.38269 4.40897 6.89664 4.89453L4.89891 6.89883C4.41361 7.38502 4.14105 8.04391 4.14105 8.73086C4.14105 9.41781 4.41361 10.0767 4.89891 10.5629C5.10873 10.7698 5.25204 11.0347 5.31049 11.3235C5.36895 11.6124 5.33989 11.9121 5.22703 12.1844C5.16943 12.3171 5.11474 12.4505 5.06297 12.5847C4.94991 12.8569 4.75812 13.0892 4.5122 13.2517C4.26627 13.4142 3.97742 13.4996 3.68266 13.4969C2.9963 13.4977 2.33831 13.7708 1.85298 14.2561C1.36766 14.7414 1.09462 15.3994 1.09375 16.0858V18.9142C1.09462 19.6006 1.36766 20.2586 1.85298 20.7439C2.33831 21.2292 2.9963 21.5023 3.68266 21.5031C3.97678 21.5014 4.26475 21.5874 4.50981 21.7501C4.75487 21.9127 4.94592 22.1447 5.05859 22.4164C5.11146 22.5513 5.16615 22.6849 5.22266 22.8173C5.33556 23.0896 5.36464 23.3894 5.30619 23.6784C5.24774 23.9673 5.1044 24.2323 4.89453 24.4393C4.65391 24.6799 4.46303 24.9655 4.3328 25.2798C4.20257 25.5942 4.13554 25.9311 4.13554 26.2713C4.13554 26.6116 4.20257 26.9485 4.3328 27.2628C4.46303 27.5772 4.65391 27.8628 4.89453 28.1034L6.89445 30.1033C7.13502 30.3439 7.42063 30.5348 7.73497 30.665C8.04931 30.7952 8.38623 30.8623 8.72648 30.8623C9.06674 30.8623 9.40366 30.7952 9.718 30.665C10.0323 30.5348 10.318 30.3439 10.5585 30.1033C10.7654 29.8934 11.0305 29.7503 11.3194 29.6923C11.6084 29.6343 11.9081 29.6641 12.18 29.7779C12.3127 29.8351 12.4461 29.8898 12.5803 29.942C12.8523 30.0544 13.0845 30.2454 13.2474 30.4904C13.4102 30.7355 13.4964 31.0236 13.4947 31.3179C13.4957 32.0045 13.7691 32.6627 14.2549 33.148C14.7407 33.6333 15.3991 33.906 16.0858 33.9062H18.9142C19.6006 33.9054 20.2586 33.6323 20.7439 33.147C21.2292 32.6617 21.5023 32.0037 21.5031 31.3173C21.5014 31.0232 21.5874 30.7353 21.7501 30.4902C21.9127 30.2451 22.1447 30.0541 22.4164 29.9414C22.5513 29.8885 22.6849 29.8339 22.8173 29.7773C23.0893 29.6642 23.389 29.6347 23.6779 29.6927C23.9668 29.7506 24.2319 29.8934 24.4393 30.1027C24.6798 30.3435 24.9654 30.5345 25.2797 30.6648C25.5941 30.7951 25.931 30.8622 26.2713 30.8622C26.6116 30.8622 26.9486 30.7951 27.2629 30.6648C27.5773 30.5345 27.8629 30.3435 28.1034 30.1027L30.1038 28.1028C30.5894 27.6168 30.8621 26.9578 30.8621 26.2708C30.8621 25.5837 30.5894 24.9248 30.1038 24.4387C29.8946 24.2314 29.752 23.9664 29.6941 23.6776C29.6362 23.3887 29.6658 23.0892 29.779 22.8173C29.8337 22.6849 29.8884 22.5515 29.943 22.417C30.0555 22.145 30.2465 21.9128 30.4915 21.7499C30.7366 21.587 31.0247 21.5009 31.319 21.5026C32.005 21.5013 32.6625 21.2281 33.1474 20.743C33.6324 20.2578 33.9052 19.6002 33.9062 18.9142V16.0858C33.9054 15.3994 33.6323 14.7414 33.147 14.2561C32.6617 13.7708 32.0037 13.4977 31.3173 13.4969ZM32.8125 18.9142C32.8121 19.3106 32.6544 19.6907 32.3741 19.971C32.0938 20.2513 31.7138 20.4089 31.3173 20.4094C30.804 20.4088 30.3021 20.5613 29.8758 20.8474C29.4495 21.1335 29.1182 21.5402 28.9242 22.0155C28.8755 22.1386 28.8247 22.2616 28.7722 22.383C28.5733 22.8562 28.5199 23.3779 28.6188 23.8816C28.7176 24.3852 28.9643 24.848 29.3273 25.2109C29.6072 25.4916 29.7644 25.8719 29.7644 26.2683C29.7644 26.6648 29.6072 27.045 29.3273 27.3257L27.3273 29.3273C27.0425 29.5992 26.6638 29.751 26.27 29.751C25.8761 29.751 25.4974 29.5992 25.2126 29.3273C24.8493 28.9641 24.3862 28.7174 23.8821 28.6185C23.3781 28.5196 22.856 28.5731 22.3825 28.7722C22.2618 28.8247 22.1393 28.8754 22.015 28.9242C21.5398 29.1183 21.1332 29.4496 20.8472 29.8759C20.5612 30.3022 20.4088 30.804 20.4094 31.3173C20.4089 31.7138 20.2513 32.0938 19.971 32.3741C19.6907 32.6544 19.3106 32.8121 18.9142 32.8125H16.0858C15.6894 32.8121 15.3093 32.6544 15.029 32.3741C14.7487 32.0938 14.5911 31.7138 14.5906 31.3173C14.5912 30.8038 14.4386 30.3018 14.1524 29.8754C13.8662 29.449 13.4594 29.1177 12.9839 28.9237C12.8609 28.8755 12.7384 28.8247 12.617 28.7722C12.3036 28.6368 11.9657 28.5674 11.6244 28.5682C10.9357 28.5686 10.2751 28.8415 9.78687 29.3273C9.50632 29.6075 9.12602 29.7649 8.72949 29.7649C8.33297 29.7649 7.95266 29.6075 7.67211 29.3273L5.67273 27.3279C5.39275 27.0471 5.23552 26.6668 5.23552 26.2702C5.23552 25.8737 5.39275 25.4934 5.67273 25.2126C6.03615 24.8495 6.28307 24.3863 6.38194 23.8822C6.48081 23.3781 6.42715 22.856 6.22781 22.3825C6.17531 22.2618 6.12464 22.1393 6.07578 22.015C5.8817 21.5398 5.55036 21.1332 5.12409 20.8472C4.69782 20.5612 4.19598 20.4088 3.68266 20.4094C3.28625 20.4089 2.9062 20.2513 2.6259 19.971C2.3456 19.6907 2.18793 19.3106 2.1875 18.9142V16.0858C2.18793 15.6894 2.3456 15.3093 2.6259 15.029C2.9062 14.7487 3.28625 14.5911 3.68266 14.5906C4.19618 14.5912 4.6982 14.4386 5.12458 14.1524C5.55095 13.8662 5.88232 13.4594 6.07633 12.9839C6.12445 12.8609 6.17531 12.7384 6.22781 12.617C6.42668 12.1438 6.48008 11.6221 6.38122 11.1184C6.28236 10.6148 6.03571 10.152 5.67273 9.78906C5.39278 9.50837 5.23557 9.12811 5.23557 8.73168C5.23557 8.33524 5.39278 7.95499 5.67273 7.6743L7.67211 5.67438C7.95289 5.39439 8.33324 5.23716 8.72977 5.23716C9.12629 5.23716 9.50664 5.39439 9.78742 5.67438C10.1505 6.03779 10.6137 6.28471 11.1178 6.38358C11.6219 6.48245 12.144 6.42879 12.6175 6.22945C12.7385 6.17695 12.8609 6.12628 12.9845 6.07742C13.46 5.88332 13.8669 5.55176 14.153 5.12516C14.4391 4.69857 14.5915 4.19632 14.5906 3.68266C14.5911 3.28625 14.7487 2.9062 15.029 2.6259C15.3093 2.3456 15.6894 2.18793 16.0858 2.1875H18.9142C19.3106 2.18793 19.6907 2.3456 19.971 2.6259C20.2513 2.9062 20.4089 3.28625 20.4094 3.68266C20.4088 4.19618 20.5614 4.6982 20.8476 5.12458C21.1338 5.55095 21.5406 5.88232 22.0161 6.07633C22.1391 6.12445 22.2616 6.17531 22.383 6.22781C22.8562 6.42682 23.3779 6.48031 23.8816 6.38144C24.3853 6.28257 24.8481 6.03584 25.2109 5.67273C25.4915 5.39252 25.8718 5.23512 26.2683 5.23512C26.6648 5.23512 27.0452 5.39252 27.3257 5.67273L29.3251 7.67211C29.6051 7.95289 29.7623 8.33324 29.7623 8.72977C29.7623 9.12629 29.6051 9.50664 29.3251 9.78742C28.9617 10.1505 28.7147 10.6137 28.6159 11.1178C28.517 11.6219 28.5707 12.144 28.77 12.6175C28.8247 12.7384 28.8734 12.8614 28.922 12.9845C29.116 13.4598 29.4473 13.8665 29.8736 14.1526C30.2999 14.4387 30.8018 14.5912 31.3152 14.5906C31.7119 14.5905 32.0926 14.7479 32.3733 15.0283C32.6541 15.3086 32.8121 15.689 32.8125 16.0858V18.9142Z" fill="white"/>
<path d="M26.419 13.0118C26.3531 13.0406 26.2936 13.082 26.2438 13.1338C26.194 13.1855 26.1549 13.2466 26.1287 13.3135C26.1025 13.3803 26.0897 13.4517 26.0911 13.5236C26.0925 13.5954 26.108 13.6662 26.1368 13.732C26.9077 15.4998 27.1176 17.4616 26.738 19.3524C26.3585 21.2432 25.4078 22.9721 24.0144 24.3054C22.621 25.6387 20.852 26.5123 18.9463 26.8082C17.0406 27.1041 15.09 26.8081 13.3579 25.9601C11.6258 25.112 10.1956 23.7529 9.26059 22.0662C8.32555 20.3794 7.93066 18.4464 8.12924 16.5281C8.32782 14.6098 9.11031 12.7986 10.371 11.3392C11.6318 9.8798 13.31 8.84243 15.1791 8.3672C15.3197 8.33159 15.4404 8.24158 15.5146 8.11697C15.5889 7.99236 15.6106 7.84336 15.575 7.70274C15.5394 7.56213 15.4494 7.44141 15.3248 7.36716C15.2002 7.29291 15.0512 7.2712 14.9105 7.30681C12.8259 7.8375 10.9543 8.99506 9.54841 10.6232C8.14253 12.2514 7.27008 14.2717 7.04884 16.4114C6.82761 18.5511 7.26826 20.7072 8.31128 22.5885C9.35431 24.4699 10.9495 25.9859 12.8815 26.9319C14.8134 27.8779 16.9891 28.2083 19.1148 27.8785C21.2405 27.5487 23.2139 26.5746 24.7684 25.0877C26.3229 23.6008 27.3838 21.6728 27.8077 19.5638C28.2317 17.4549 27.9984 15.2667 27.1392 13.2945C27.1105 13.2287 27.0691 13.1691 27.0174 13.1192C26.9656 13.0694 26.9046 13.0302 26.8377 13.0039C26.7708 12.9777 26.6994 12.9648 26.6275 12.9662C26.5557 12.9675 26.4848 12.983 26.419 13.0118Z" fill="white"/>
<path d="M20.3016 8.50335C21.4457 8.85827 22.5109 9.42993 23.4391 10.1872C23.4945 10.2343 23.5589 10.2698 23.6283 10.2918C23.6977 10.3137 23.7707 10.3216 23.8432 10.3149C23.9157 10.3082 23.9861 10.2871 24.0503 10.2529C24.1145 10.2186 24.1713 10.1719 24.2172 10.1155C24.2631 10.059 24.2973 9.99395 24.3178 9.92411C24.3383 9.85426 24.3446 9.78104 24.3364 9.70872C24.3282 9.6364 24.3057 9.56645 24.2701 9.50296C24.2345 9.43947 24.1866 9.38371 24.1292 9.33897C23.093 8.4935 21.9038 7.85519 20.6265 7.45882C20.5579 7.43749 20.4858 7.42988 20.4142 7.43642C20.3427 7.44296 20.2732 7.46352 20.2096 7.49693C20.146 7.53035 20.0897 7.57596 20.0437 7.63116C19.9977 7.68636 19.9631 7.75008 19.9418 7.81866C19.9205 7.88725 19.9128 7.95936 19.9194 8.03089C19.9259 8.10241 19.9465 8.17195 19.9799 8.23553C20.0133 8.29911 20.0589 8.35548 20.1141 8.40144C20.1693 8.44739 20.233 8.48202 20.3016 8.50335Z" fill="white"/>
<path d="M11.0573 12.7843V15.5466C11.0453 16.9281 11.3205 18.2971 11.8655 19.5667C12.4105 20.8363 13.2133 21.9788 14.2231 22.9217C15.1286 23.7475 16.1631 24.4196 17.2856 24.9113C17.3546 24.9414 17.4291 24.9569 17.5044 24.9569C17.5796 24.9569 17.6541 24.9414 17.7231 24.9113C18.8457 24.4197 19.8803 23.7477 20.7856 22.9217C21.7956 21.9789 22.5986 20.8364 23.1436 19.5668C23.6887 18.2972 23.964 16.9282 23.952 15.5466V12.7843C23.952 12.6726 23.9178 12.5635 23.854 12.4718C23.7901 12.3801 23.6997 12.3101 23.5949 12.2713L17.6919 10.0893C17.5697 10.0441 17.4353 10.0441 17.313 10.0893L11.4105 12.2713C11.3065 12.3107 11.2169 12.3809 11.1537 12.4726C11.0906 12.5643 11.057 12.673 11.0573 12.7843ZM22.8621 15.5466C22.8741 16.7762 22.6305 17.995 22.1469 19.1256C21.6632 20.2562 20.9499 21.274 20.0523 22.1145C19.4459 22.6655 18.7747 23.1406 18.0534 23.5293V11.3887L22.8621 13.1666V15.5466ZM12.151 13.1655L16.9597 11.3876V23.5282C16.2384 23.1396 15.5671 22.6645 14.9609 22.1134C14.0632 21.2729 13.3499 20.2551 12.8663 19.1245C12.3826 17.9939 12.139 16.7751 12.151 15.5455V13.1655Z" fill="white"/>
</svg>
