<svg width="35" height="35" viewBox="0 0 35 35" fill="none" xmlns="http://www.w3.org/2000/svg">
<path d="M32.5996 8.23375L26.7663 2.40042C26.6984 2.33275 26.6179 2.27911 26.5293 2.24258C26.4407 2.20605 26.3458 2.18733 26.25 2.1875H12.2165C11.4907 2.18827 10.7949 2.47691 10.2818 2.99009C9.76859 3.50326 9.47995 4.19906 9.47918 4.92479V11.0119C8.46197 11.1838 7.53824 11.7097 6.87113 12.4966C6.20402 13.2835 5.83645 14.2809 5.83334 15.3125V18.2292H5.54168C5.03958 18.2315 4.5587 18.4319 4.20366 18.787C3.84862 19.142 3.64814 19.6229 3.64584 20.125V26.5417C3.64814 27.0438 3.84862 27.5246 4.20366 27.8797C4.5587 28.2347 5.03958 28.4352 5.54168 28.4375H9.47918V30.0752C9.47995 30.8009 9.76859 31.4967 10.2818 32.0099C10.7949 32.5231 11.4907 32.8117 12.2165 32.8125H30.0752C30.801 32.8117 31.4967 32.5231 32.0099 32.0099C32.5231 31.4967 32.8117 30.8009 32.8125 30.0752V8.75C32.8127 8.65418 32.794 8.55927 32.7574 8.47069C32.7209 8.3821 32.6673 8.30159 32.5996 8.23375ZM26.9792 4.67688L30.3231 8.02083H26.9792V4.67688ZM7.29168 15.3125C7.29168 14.539 7.59897 13.7971 8.14595 13.2501C8.69293 12.7031 9.4348 12.3958 10.2083 12.3958C10.9819 12.3958 11.7238 12.7031 12.2707 13.2501C12.8177 13.7971 13.125 14.539 13.125 15.3125V18.2292H7.29168V15.3125ZM5.10418 26.5417V20.125C5.10418 20.009 5.15027 19.8977 5.23232 19.8156C5.31436 19.7336 5.42564 19.6875 5.54168 19.6875H14.875C14.991 19.6875 15.1023 19.7336 15.1844 19.8156C15.2664 19.8977 15.3125 20.009 15.3125 20.125V26.5417C15.3125 26.5991 15.3012 26.656 15.2792 26.7091C15.2572 26.7622 15.225 26.8104 15.1844 26.851C15.1437 26.8917 15.0955 26.9239 15.0424 26.9459C14.9894 26.9678 14.9325 26.9792 14.875 26.9792H5.54168C5.48422 26.9792 5.42733 26.9678 5.37425 26.9459C5.32117 26.9239 5.27294 26.8917 5.23232 26.851C5.19169 26.8104 5.15947 26.7622 5.13748 26.7091C5.11549 26.656 5.10418 26.5991 5.10418 26.5417ZM30.0752 31.3542H12.2165C11.8775 31.3534 11.5526 31.2184 11.313 30.9787C11.0733 30.739 10.9383 30.4142 10.9375 30.0752V28.4375H14.875C15.3771 28.4352 15.858 28.2347 16.213 27.8797C16.5681 27.5246 16.7685 27.0438 16.7708 26.5417V20.125C16.7685 19.6229 16.5681 19.142 16.213 18.787C15.858 18.4319 15.3771 18.2315 14.875 18.2292H14.5833V15.3125C14.5802 14.2809 14.2127 13.2835 13.5456 12.4966C12.8785 11.7097 11.9547 11.1838 10.9375 11.0119V4.92479C10.9383 4.58583 11.0733 4.26097 11.313 4.02128C11.5526 3.7816 11.8775 3.64661 12.2165 3.64583H25.5208V8.75C25.5208 8.94339 25.5977 9.12885 25.7344 9.2656C25.8712 9.40235 26.0566 9.47917 26.25 9.47917H31.3542V30.0752C31.3534 30.4142 31.2184 30.739 30.9787 30.9787C30.739 31.2184 30.4142 31.3534 30.0752 31.3542Z" fill="white"/>
<path d="M26.25 12.3958H18.9584C18.765 12.3958 18.5795 12.4727 18.4428 12.6094C18.306 12.7462 18.2292 12.9316 18.2292 13.125C18.2292 13.3184 18.306 13.5039 18.4428 13.6406C18.5795 13.7774 18.765 13.8542 18.9584 13.8542H26.25C26.4434 13.8542 26.6289 13.7774 26.7656 13.6406C26.9024 13.5039 26.9792 13.3184 26.9792 13.125C26.9792 12.9316 26.9024 12.7462 26.7656 12.6094C26.6289 12.4727 26.4434 12.3958 26.25 12.3958Z" fill="white"/>
<path d="M26.25 16.7708H21.875C21.6816 16.7708 21.4962 16.8477 21.3594 16.9844C21.2227 17.1212 21.1458 17.3066 21.1458 17.5C21.1458 17.6934 21.2227 17.8789 21.3594 18.0156C21.4962 18.1524 21.6816 18.2292 21.875 18.2292H26.25C26.4434 18.2292 26.6289 18.1524 26.7656 18.0156C26.9024 17.8789 26.9792 17.6934 26.9792 17.5C26.9792 17.3066 26.9024 17.1212 26.7656 16.9844C26.6289 16.8477 26.4434 16.7708 26.25 16.7708Z" fill="white"/>
</svg>
