<svg width="30" height="30" viewBox="0 0 30 30" fill="none" xmlns="http://www.w3.org/2000/svg">
<g clip-path="url(#clip0_1148_1773)">
<path d="M27.3278 5.18034C23.2002 4.04936 19.0483 2.28833 15.321 0.0876707C15.123 -0.0292236 14.8773 -0.0292236 14.6794 0.0876707C10.8445 2.35155 6.917 4.01731 2.67218 5.18034C2.39796 5.2554 2.20789 5.50465 2.20789 5.78901V12.237C2.20789 18.877 5.2711 23.2722 7.8409 25.7901C10.6075 28.5009 13.8301 30 15.0002 30C16.1701 30 19.3928 28.5009 22.1593 25.7901C24.7291 23.2723 27.7921 18.8771 27.7921 12.237V5.78895C27.7921 5.50465 27.602 5.2554 27.3278 5.18034ZM26.53 12.2369C26.53 18.4387 23.6729 22.5399 21.276 24.8885C18.5554 27.5542 15.6466 28.7378 15.0002 28.7378C14.3537 28.7378 11.4448 27.5542 8.72414 24.8885C6.32725 22.5399 3.47005 18.4387 3.47005 12.2369V6.26801C7.5293 5.11547 11.3096 3.50702 15.0003 1.36232C18.5988 3.45013 22.5677 5.13856 26.53 6.26778V12.2369Z" fill="white"/>
<path d="M9.40652 6.19738C9.27878 5.87306 8.9124 5.71374 8.58802 5.84154C7.46068 6.28574 6.30358 6.6946 5.14887 7.05683C4.88573 7.13944 4.70667 7.38319 4.70667 7.65894V10.0959C4.70667 10.4444 4.98926 10.727 5.33772 10.727C5.68617 10.727 5.96877 10.4444 5.96877 10.0959V8.12013C7.00465 7.78497 8.03941 7.41425 9.05068 7.01575C9.375 6.88808 9.53431 6.52169 9.40652 6.19738Z" fill="white"/>
<path d="M10.6053 6.31713C10.6899 6.31713 10.7759 6.30008 10.8583 6.2641L10.8699 6.25906C11.1892 6.11914 11.333 5.74748 11.1931 5.42832C11.053 5.10904 10.6793 4.96461 10.3604 5.10441L10.3502 5.10881C10.0307 5.24832 9.88645 5.61969 10.026 5.93902C10.1295 6.17609 10.3618 6.31713 10.6053 6.31713Z" fill="white"/>
<path d="M22.5189 20.3486C22.2273 20.158 21.8362 20.24 21.6454 20.5317C21.1254 21.3277 20.5153 22.0898 19.8318 22.7969C19.2698 23.3783 18.6608 23.9201 18.0217 24.4073C17.7446 24.6186 17.6913 25.0146 17.9025 25.2918C18.0268 25.4546 18.2147 25.5403 18.4048 25.5403C18.5383 25.5403 18.6727 25.4982 18.787 25.411C19.4764 24.8853 20.1332 24.301 20.7392 23.6742C21.4781 22.9099 22.1384 22.0849 22.702 21.2221C22.8927 20.9303 22.8106 20.5392 22.5189 20.3486Z" fill="white"/>
<path d="M16.5561 25.397L16.5199 25.4184C16.2183 25.593 16.1152 25.979 16.2898 26.2806C16.4068 26.4828 16.6187 26.5956 16.8366 26.5956C16.9438 26.5956 17.0527 26.5683 17.1521 26.5105L17.1939 26.486C17.4946 26.3099 17.5956 25.9233 17.4195 25.6226C17.2433 25.3219 16.8567 25.2211 16.5561 25.397Z" fill="white"/>
<path d="M10.6985 13.712C10.3111 13.3245 9.79573 13.1112 9.24765 13.1112C8.69956 13.1112 8.18417 13.3246 7.79652 13.712C6.99654 14.5122 6.99654 15.8141 7.79652 16.6142L11.5228 20.3404C11.9104 20.7279 12.4257 20.9412 12.9739 20.9412C13.522 20.9412 14.0373 20.7279 14.4249 20.3403L22.2039 12.5613C23.0038 11.761 23.0038 10.4592 22.2038 9.65935C21.8162 9.27181 21.3009 9.05853 20.7527 9.05853C20.2045 9.05853 19.6892 9.27187 19.3016 9.65935L12.9738 15.9872L10.6985 13.712ZM20.1941 10.5519C20.3432 10.4027 20.5417 10.3206 20.7527 10.3206C20.9639 10.3206 21.1622 10.4027 21.3114 10.5519C21.6193 10.8598 21.6193 11.361 21.3113 11.669L13.5325 19.4479C13.3834 19.597 13.1849 19.6791 12.9739 19.6791C12.7628 19.6791 12.5643 19.597 12.4152 19.4479L8.68896 15.7218C8.38093 15.4138 8.38093 14.9126 8.68884 14.6047C8.83802 14.4555 9.03648 14.3733 9.24759 14.3733C9.4587 14.3733 9.65704 14.4554 9.80616 14.6045L12.5275 17.326C12.646 17.4443 12.8064 17.5108 12.9738 17.5108C13.1412 17.5108 13.3016 17.4443 13.4199 17.326L20.1941 10.5519Z" fill="white"/>
</g>
<defs>
<clipPath id="clip0_1148_1773">
<rect width="30" height="30" fill="white"/>
</clipPath>
</defs>
</svg>
